<svg width="150" height="150" viewBox="0 0 150 150" fill="none" xmlns="http://www.w3.org/2000/svg">
<circle cx="75" cy="75" r="71.5" fill="#182B49" stroke="#182B49" stroke-width="7"/>
<path d="M54.5833 95.0084V64.4252C54.5832 63.9532 54.7278 63.4926 54.9976 63.1059C55.2674 62.7192 55.6492 62.4251 56.0913 62.2637L78.254 54.1787C78.4271 54.1155 78.6128 54.0951 78.7955 54.1192C78.9782 54.1434 79.1523 54.2114 79.3032 54.3174C79.4541 54.4235 79.5773 54.5645 79.6623 54.7285C79.7474 54.8925 79.7917 55.0746 79.7917 55.2595V66.6488L94.2658 71.4893C94.7223 71.6418 95.1194 71.9347 95.4008 72.3264C95.6821 72.7181 95.8335 73.1887 95.8333 73.6715V95.0084H100.417V99.6074H50V95.0084H54.5833ZM59.1667 95.0084H75.2083V60.1827L59.1667 66.0372V95.0084ZM91.25 95.0084V75.3294L79.7917 71.4962V95.0084H91.25Z" fill="#FFCD00"/>
</svg>
