<svg width="150" height="150" viewBox="0 0 150 150" fill="none" xmlns="http://www.w3.org/2000/svg">
<circle cx="75" cy="75" r="71.5" stroke="#182B49" stroke-width="7"/>
<path d="M91.6667 86.5948V80.3235H97.2222C98.0093 80.3235 98.6685 80.6235 99.2 81.2235C99.7333 81.8255 100 82.5707 100 83.4592C100 84.3476 99.7333 85.0918 99.2 85.6918C98.6685 86.2938 98.0093 86.5948 97.2222 86.5948H91.6667ZM91.6667 99.1375V92.8662H97.2222C98.0093 92.8662 98.6685 93.1672 99.2 93.7692C99.7333 94.3692 100 95.1134 100 96.0018C100 96.8903 99.7333 97.6345 99.2 98.2344C98.6685 98.8365 98.0093 99.1375 97.2222 99.1375H91.6667ZM80.5556 102.273C79.0278 102.273 77.7204 101.66 76.6333 100.433C75.5444 99.2034 75 97.7265 75 96.0018H69.4444V83.4592H75C75 81.7346 75.5444 80.2577 76.6333 79.0285C77.7204 77.8014 79.0278 77.1879 80.5556 77.1879H88.8889V102.273H80.5556ZM61.1111 92.8662C58.0556 92.8662 55.4398 91.638 53.2639 89.1818C51.088 86.7255 50 83.7728 50 80.3235C50 76.8743 51.088 73.9215 53.2639 71.4653C55.4398 69.009 58.0556 67.7809 61.1111 67.7809H65.2778C66.4352 67.7809 67.4185 67.3231 68.2278 66.4074C69.0389 65.4939 69.4444 64.3839 69.4444 63.0774C69.4444 61.7708 69.0389 60.6608 68.2278 59.7473C67.4185 58.8317 66.4352 58.3739 65.2778 58.3739H55.5556C54.7685 58.3739 54.1083 58.0739 53.575 57.4739C53.0435 56.8719 52.7778 56.1266 52.7778 55.2382C52.7778 54.3498 53.0435 53.6045 53.575 53.0025C54.1083 52.4025 54.7685 52.1025 55.5556 52.1025H65.2778C67.963 52.1025 70.2546 53.1739 72.1528 55.3166C74.0509 57.4593 75 60.0462 75 63.0774C75 66.1085 74.0509 68.6954 72.1528 70.8381C70.2546 72.9808 67.963 74.0522 65.2778 74.0522H61.1111C59.5833 74.0522 58.2759 74.6657 57.1889 75.8928C56.1 77.122 55.5556 78.5989 55.5556 80.3235C55.5556 82.0481 56.1 83.524 57.1889 84.7511C58.2759 85.9803 59.5833 86.5948 61.1111 86.5948H66.6667V92.8662H61.1111Z" fill="#182B49"/>
</svg>
