<svg width="150" height="150" viewBox="0 0 150 150" fill="none" xmlns="http://www.w3.org/2000/svg">
<path d="M79.6562 71.9219H77.0781V59.8906H77.9375C79.5312 59.8963 81.058 60.5319 82.1849 61.6588C83.3119 62.7857 83.9475 64.3125 83.9531 65.9062C83.9531 66.59 84.2247 67.2458 84.7082 67.7293C85.1917 68.2128 85.8475 68.4844 86.5312 68.4844C87.215 68.4844 87.8708 68.2128 88.3543 67.7293C88.8378 67.2458 89.1094 66.59 89.1094 65.9062C89.1094 62.9433 87.9323 60.1017 85.8372 58.0065C83.7421 55.9114 80.9005 54.7344 77.9375 54.7344H77.0781V52.1562C77.0781 51.4725 76.8065 50.8167 76.323 50.3332C75.8395 49.8497 75.1838 49.5781 74.5 49.5781C73.8162 49.5781 73.1605 49.8497 72.677 50.3332C72.1935 50.8167 71.9219 51.4725 71.9219 52.1562V54.7344H70.2031C67.2402 54.7344 64.3985 55.9114 62.3034 58.0065C60.2083 60.1017 59.0312 62.9433 59.0312 65.9062C59.0312 68.8692 60.2083 71.7108 62.3034 73.806C64.3985 75.9011 67.2402 77.0781 70.2031 77.0781H71.9219V89.1094H69.3438C67.75 89.1037 66.2232 88.4681 65.0963 87.3412C63.9694 86.2143 63.3338 84.6875 63.3281 83.0938C63.3281 82.41 63.0565 81.7542 62.573 81.2707C62.0895 80.7872 61.4338 80.5156 60.75 80.5156C60.0662 80.5156 59.4105 80.7872 58.927 81.2707C58.4435 81.7542 58.1719 82.41 58.1719 83.0938C58.1719 86.0567 59.3489 88.8983 61.444 90.9935C63.5392 93.0886 66.3808 94.2656 69.3438 94.2656H71.9219V96.8438C71.9219 97.5275 72.1935 98.1833 72.677 98.6668C73.1605 99.1502 73.8162 99.4219 74.5 99.4219C75.1838 99.4219 75.8395 99.1502 76.323 98.6668C76.8065 98.1833 77.0781 97.5275 77.0781 96.8438V94.2656H79.6562C82.6192 94.2656 85.4608 93.0886 87.556 90.9935C89.6511 88.8983 90.8281 86.0567 90.8281 83.0938C90.8281 80.1308 89.6511 77.2892 87.556 75.194C85.4608 73.0989 82.6192 71.9219 79.6562 71.9219ZM70.2031 71.9219C68.6077 71.9219 67.0776 71.2881 65.9494 70.1599C64.8213 69.0318 64.1875 67.5017 64.1875 65.9062C64.1875 64.3108 64.8213 62.7807 65.9494 61.6526C67.0776 60.5244 68.6077 59.8906 70.2031 59.8906H71.9219V71.9219H70.2031ZM79.6562 89.1094H77.0781V77.0781H79.6562C81.2517 77.0781 82.7818 77.7119 83.9099 78.8401C85.0381 79.9682 85.6719 81.4983 85.6719 83.0938C85.6719 84.6892 85.0381 86.2193 83.9099 87.3474C82.7818 88.4756 81.2517 89.1094 79.6562 89.1094Z" fill="#182B49"/>
<circle cx="75" cy="75" r="71.5" stroke="black" stroke-width="7"/>
</svg>
