<svg width="150" height="150" viewBox="0 0 150 150" fill="none" xmlns="http://www.w3.org/2000/svg">
<rect width="150" height="150" fill="#DDDDDD"/>
<g clip-path="url(#clip0_0_1)">
<rect width="1728" height="4491" transform="translate(-946 -842)" fill="white"/>
<circle cx="75" cy="75" r="71.5" fill="#182B49" stroke="#182B49" stroke-width="7"/>
<g filter="url(#filter0_d_0_1)">
<path d="M80.4844 72.3438H77.9062V60.3125H78.7656C80.3593 60.3182 81.8861 60.9538 83.0131 62.0807C84.14 63.2076 84.7756 64.7344 84.7812 66.3281C84.7812 67.0119 85.0529 67.6676 85.5364 68.1511C86.0199 68.6346 86.6756 68.9062 87.3594 68.9062C88.0431 68.9062 88.6989 68.6346 89.1824 68.1511C89.6659 67.6676 89.9375 67.0119 89.9375 66.3281C89.9375 63.3652 88.7605 60.5235 86.6653 58.4284C84.5702 56.3333 81.7286 55.1562 78.7656 55.1562H77.9062V52.5781C77.9062 51.8944 77.6346 51.2386 77.1511 50.7551C76.6676 50.2716 76.0119 50 75.3281 50C74.6444 50 73.9886 50.2716 73.5051 50.7551C73.0216 51.2386 72.75 51.8944 72.75 52.5781V55.1562H71.0312C68.0683 55.1562 65.2267 56.3333 63.1315 58.4284C61.0364 60.5235 59.8594 63.3652 59.8594 66.3281C59.8594 69.2911 61.0364 72.1327 63.1315 74.2278C65.2267 76.323 68.0683 77.5 71.0312 77.5H72.75V89.5312H70.1719C68.5782 89.5256 67.0514 88.89 65.9244 87.7631C64.7975 86.6361 64.1619 85.1093 64.1562 83.5156C64.1562 82.8319 63.8846 82.1761 63.4011 81.6926C62.9176 81.2091 62.2619 80.9375 61.5781 80.9375C60.8944 80.9375 60.2386 81.2091 59.7551 81.6926C59.2716 82.1761 59 82.8319 59 83.5156C59 86.4786 60.177 89.3202 62.2722 91.4153C64.3673 93.5105 67.2089 94.6875 70.1719 94.6875H72.75V97.2656C72.75 97.9494 73.0216 98.6051 73.5051 99.0886C73.9886 99.5721 74.6444 99.8438 75.3281 99.8438C76.0119 99.8438 76.6676 99.5721 77.1511 99.0886C77.6346 98.6051 77.9062 97.9494 77.9062 97.2656V94.6875H80.4844C83.4473 94.6875 86.2889 93.5105 88.3841 91.4153C90.4792 89.3202 91.6562 86.4786 91.6562 83.5156C91.6562 80.5527 90.4792 77.7111 88.3841 75.6159C86.2889 73.5208 83.4473 72.3438 80.4844 72.3438ZM71.0312 72.3438C69.4358 72.3438 67.9057 71.71 66.7776 70.5818C65.6494 69.4537 65.0156 67.9236 65.0156 66.3281C65.0156 64.7327 65.6494 63.2026 66.7776 62.0744C67.9057 60.9463 69.4358 60.3125 71.0312 60.3125H72.75V72.3438H71.0312ZM80.4844 89.5312H77.9062V77.5H80.4844C82.0798 77.5 83.6099 78.1338 84.7381 79.2619C85.8662 80.3901 86.5 81.9202 86.5 83.5156C86.5 85.1111 85.8662 86.6412 84.7381 87.7693C83.6099 88.8975 82.0798 89.5312 80.4844 89.5312Z" fill="#FFCD00"/>
</g>
</g>
<defs>
<filter id="filter0_d_0_1" x="55" y="50" width="40.6562" height="57.8438" filterUnits="userSpaceOnUse" color-interpolation-filters="sRGB">
<feFlood flood-opacity="0" result="BackgroundImageFix"/>
<feColorMatrix in="SourceAlpha" type="matrix" values="0 0 0 0 0 0 0 0 0 0 0 0 0 0 0 0 0 0 127 0" result="hardAlpha"/>
<feOffset dy="4"/>
<feGaussianBlur stdDeviation="2"/>
<feComposite in2="hardAlpha" operator="out"/>
<feColorMatrix type="matrix" values="0 0 0 0 0 0 0 0 0 0 0 0 0 0 0 0 0 0 0.25 0"/>
<feBlend mode="normal" in2="BackgroundImageFix" result="effect1_dropShadow_0_1"/>
<feBlend mode="normal" in="SourceGraphic" in2="effect1_dropShadow_0_1" result="shape"/>
</filter>
<clipPath id="clip0_0_1">
<rect width="1728" height="4491" fill="white" transform="translate(-946 -842)"/>
</clipPath>
</defs>
</svg>
