<svg width="150" height="150" viewBox="0 0 150 150" fill="none" xmlns="http://www.w3.org/2000/svg">
<circle cx="75" cy="75" r="71.5" fill="#182B49" stroke="#182B49" stroke-width="7"/>
<path d="M96.5062 79.4793C96.0575 78.9758 95.81 78.3285 95.81 77.6583C95.81 76.9881 96.0575 76.3409 96.5062 75.8374L100.089 71.8644C100.484 71.4303 100.729 70.8841 100.789 70.3042C100.85 69.7243 100.722 69.1404 100.425 68.6364L94.8267 59.0902C94.5326 58.5867 94.0846 58.1876 93.5468 57.9498C93.009 57.712 92.4088 57.6476 91.8317 57.7658L86.5693 58.8143C85.8997 58.9506 85.2026 58.8407 84.6095 58.5053C84.0165 58.1698 83.5686 57.632 83.3502 56.9933L81.6428 51.9443C81.455 51.3963 81.0972 50.9204 80.62 50.5837C80.1429 50.247 79.5704 50.0667 78.9836 50.0682H67.787C67.1766 50.0368 66.5726 50.2032 66.0671 50.542C65.5617 50.8807 65.1826 51.3733 64.9879 51.9443L63.4203 56.9933C63.202 57.632 62.7541 58.1698 62.161 58.5053C61.568 58.8407 60.8709 58.9506 60.2013 58.8143L54.799 57.7658C54.2519 57.6896 53.6941 57.7747 53.196 58.0104C52.6979 58.2461 52.2817 58.6218 51.9998 59.0902L46.4015 68.6364C46.0969 69.1348 45.9599 69.7154 46.0102 70.2951C46.0604 70.8749 46.2954 71.4242 46.6815 71.8644L50.2364 75.8374C50.6851 76.3409 50.9326 76.9881 50.9326 77.6583C50.9326 78.3285 50.6851 78.9758 50.2364 79.4793L46.6815 83.4522C46.2954 83.8925 46.0604 84.4417 46.0102 85.0215C45.9599 85.6013 46.0969 86.1819 46.4015 86.6803L51.9998 96.2265C52.294 96.7299 52.7419 97.129 53.2797 97.3668C53.8176 97.6046 54.4178 97.669 54.9949 97.5508L60.2573 96.5024C60.9269 96.366 61.624 96.4759 62.217 96.8114C62.81 97.1468 63.258 97.6846 63.4763 98.3233L65.1838 103.372C65.3786 103.943 65.7576 104.436 66.2631 104.775C66.7685 105.113 67.3725 105.28 67.9829 105.248H79.1795C79.7663 105.25 80.3388 105.07 80.816 104.733C81.2932 104.396 81.6509 103.92 81.8387 103.372L83.5462 98.3233C83.7645 97.6846 84.2125 97.1468 84.8055 96.8114C85.3985 96.4759 86.0956 96.366 86.7652 96.5024L92.0276 97.5508C92.6047 97.669 93.205 97.6046 93.7428 97.3668C94.2806 97.129 94.7285 96.7299 95.0227 96.2265L100.621 86.6803C100.918 86.1763 101.046 85.5924 100.985 85.0124C100.925 84.4325 100.68 83.8863 100.285 83.4522L96.5062 79.4793ZM92.3355 83.1763L94.5748 85.6595L90.9919 91.7845L87.6889 91.1223C85.6729 90.7161 83.5758 91.0536 81.7956 92.0708C80.0154 93.088 78.6761 94.7141 78.0319 96.6403L76.9682 99.7304H69.8024L68.7947 96.5851C68.1505 94.6589 66.8112 93.0329 65.031 92.0157C63.2508 90.9985 61.1536 90.6609 59.1376 91.0671L55.8347 91.7293L52.1958 85.6319L54.4351 83.1488C55.8121 81.6312 56.5734 79.6667 56.5734 77.6307C56.5734 75.5948 55.8121 73.6302 54.4351 72.1127L52.1958 69.6296L55.7787 63.5598L59.0817 64.2219C61.0977 64.6281 63.1948 64.2906 64.975 63.2734C66.7552 62.2562 68.0945 60.6301 68.7387 58.7039L69.8024 55.5862H76.9682L78.0319 58.7315C78.6761 60.6577 80.0154 62.2838 81.7956 63.301C83.5758 64.3182 85.6729 64.6557 87.6889 64.2495L90.9919 63.5874L94.5748 69.7124L92.3355 72.1955C90.9739 73.7095 90.2221 75.6627 90.2221 77.6859C90.2221 79.7091 90.9739 81.6623 92.3355 83.1763ZM73.3853 66.6223C71.1708 66.6223 69.0061 67.2695 67.1648 68.4822C65.3235 69.6948 63.8884 71.4184 63.041 73.435C62.1936 75.4516 61.9718 77.6706 62.4039 79.8113C62.8359 81.9521 63.9022 83.9186 65.4681 85.462C67.034 87.0054 69.029 88.0565 71.2009 88.4823C73.3729 88.9081 75.6241 88.6896 77.67 87.8543C79.7159 87.019 81.4646 85.6045 82.6949 83.7896C83.9252 81.9747 84.5819 79.841 84.5819 77.6583C84.5819 74.7314 83.4022 71.9243 81.3025 69.8547C79.2027 67.785 76.3548 66.6223 73.3853 66.6223ZM73.3853 83.1763C72.2781 83.1763 71.1957 82.8527 70.275 82.2464C69.3544 81.6401 68.6369 80.7783 68.2131 79.77C67.7894 78.7617 67.6786 77.6522 67.8946 76.5818C68.1106 75.5114 68.6438 74.5282 69.4267 73.7565C70.2096 72.9848 71.2072 72.4592 72.2931 72.2463C73.3791 72.0334 74.5047 72.1427 75.5277 72.5603C76.5506 72.978 77.4249 73.6852 78.0401 74.5927C78.6552 75.5001 78.9836 76.567 78.9836 77.6583C78.9836 79.1218 78.3938 80.5253 77.3439 81.5601C76.294 82.595 74.8701 83.1763 73.3853 83.1763Z" fill="#FFCD00"/>
</svg>
