<svg width="150" height="150" viewBox="0 0 150 150" fill="none" xmlns="http://www.w3.org/2000/svg">
<circle cx="75" cy="75" r="71.5" fill="#182B49" stroke="#182B49" stroke-width="7"/>
<path d="M65.0415 88.958C63.7811 88.958 62.7025 88.5096 61.8057 87.6128C60.9073 86.7145 60.4582 85.6351 60.4582 84.3747V59.1663C60.4582 57.9059 60.9073 56.8265 61.8057 55.9282C62.7025 55.0314 63.7811 54.583 65.0415 54.583H74.6092C75.2203 54.583 75.8032 54.6976 76.3578 54.9268C76.9108 55.1559 77.3974 55.4806 77.8175 55.9007L81.0832 59.1663H97.1248C98.3853 59.1663 99.4646 59.6155 100.363 60.5138C101.26 61.4106 101.708 62.4893 101.708 63.7497V84.3747C101.708 85.6351 101.26 86.7145 100.363 87.6128C99.4646 88.5096 98.3853 88.958 97.1248 88.958H65.0415ZM65.0415 84.3747H97.1248V63.7497H79.1925L74.6092 59.1663H65.0415V84.3747ZM55.8748 98.1247C54.6144 98.1247 53.5358 97.6763 52.639 96.7795C51.7407 95.8811 51.2915 94.8018 51.2915 93.5413V66.0413C51.2915 65.392 51.5115 64.8474 51.9515 64.4074C52.39 63.9689 52.9339 63.7497 53.5832 63.7497C54.2325 63.7497 54.7771 63.9689 55.2171 64.4074C55.6556 64.8474 55.8748 65.392 55.8748 66.0413V93.5413H92.5415C93.1908 93.5413 93.7347 93.7613 94.1732 94.2013C94.6132 94.6398 94.8332 95.1837 94.8332 95.833C94.8332 96.4823 94.6132 97.0262 94.1732 97.4647C93.7347 97.9047 93.1908 98.1247 92.5415 98.1247H55.8748ZM71.9165 79.7913H90.2498C90.7082 79.7913 91.0519 79.5813 91.2811 79.1611C91.5103 78.741 91.4721 78.34 91.1665 77.958L85.7238 70.682C85.4946 70.3764 85.1891 70.2236 84.8071 70.2236C84.4252 70.2236 84.1196 70.3764 83.8905 70.682L78.7915 77.4997L75.9842 73.7184C75.755 73.4129 75.4495 73.2601 75.0675 73.2601C74.6856 73.2601 74.38 73.4129 74.1509 73.7184L70.9998 77.958C70.6943 78.34 70.6561 78.741 70.8853 79.1611C71.1144 79.5813 71.4582 79.7913 71.9165 79.7913ZM65.0415 84.3747V59.1663V84.3747Z" fill="#FFCD00"/>
</svg>
