<svg width="150" height="150" viewBox="0 0 150 150" fill="none" xmlns="http://www.w3.org/2000/svg">
<circle cx="75" cy="75" r="71.5" stroke="#182B49" stroke-width="7"/>
<path d="M65.0417 88.958C63.7813 88.958 62.7027 88.5096 61.8059 87.6128C60.9075 86.7145 60.4584 85.6351 60.4584 84.3747V59.1663C60.4584 57.9059 60.9075 56.8265 61.8059 55.9282C62.7027 55.0314 63.7813 54.583 65.0417 54.583H74.6094C75.2205 54.583 75.8034 54.6976 76.3579 54.9268C76.911 55.1559 77.3976 55.4806 77.8177 55.9007L81.0834 59.1663H97.125C98.3854 59.1663 99.4648 59.6155 100.363 60.5138C101.26 61.4106 101.708 62.4893 101.708 63.7497V84.3747C101.708 85.6351 101.26 86.7145 100.363 87.6128C99.4648 88.5096 98.3854 88.958 97.125 88.958H65.0417ZM65.0417 84.3747H97.125V63.7497H79.1927L74.6094 59.1663H65.0417V84.3747ZM55.875 98.1247C54.6146 98.1247 53.536 97.6763 52.6392 96.7795C51.7409 95.8811 51.2917 94.8018 51.2917 93.5413V66.0413C51.2917 65.392 51.5117 64.8474 51.9517 64.4074C52.3902 63.9689 52.934 63.7497 53.5834 63.7497C54.2327 63.7497 54.7773 63.9689 55.2173 64.4074C55.6558 64.8474 55.875 65.392 55.875 66.0413V93.5413H92.5417C93.191 93.5413 93.7349 93.7613 94.1734 94.2013C94.6133 94.6398 94.8334 95.1837 94.8334 95.833C94.8334 96.4823 94.6133 97.0262 94.1734 97.4647C93.7349 97.9047 93.191 98.1247 92.5417 98.1247H55.875ZM71.9167 79.7913H90.25C90.7084 79.7913 91.0521 79.5813 91.2813 79.1611C91.5104 78.741 91.4722 78.34 91.1667 77.958L85.724 70.682C85.4948 70.3764 85.1893 70.2236 84.8073 70.2236C84.4254 70.2236 84.1198 70.3764 83.8906 70.682L78.7917 77.4997L75.9844 73.7184C75.7552 73.4129 75.4497 73.2601 75.0677 73.2601C74.6858 73.2601 74.3802 73.4129 74.1511 73.7184L71 77.958C70.6945 78.34 70.6563 78.741 70.8854 79.1611C71.1146 79.5813 71.4584 79.7913 71.9167 79.7913ZM65.0417 84.3747V59.1663V84.3747Z" fill="#182B49"/>
</svg>
