<svg width="150" height="150" viewBox="0 0 150 150" fill="none" xmlns="http://www.w3.org/2000/svg">
<circle cx="75" cy="75" r="71.5" stroke="#182B49" stroke-width="7"/>
<path d="M76.8014 78.7261C76.6832 78.5102 76.5357 78.3117 76.3631 78.1365L74.393 76.1866C74.1906 75.9799 73.9517 75.8129 73.6883 75.694C73.2739 75.5085 72.8132 75.4532 72.3669 75.5354C71.9205 75.6175 71.5094 75.8333 71.1875 76.1543C70.5043 76.829 69.2539 78.06 66.9981 80.2966C62.684 84.579 54.6736 91.7567 51.0513 94.8179C50.8688 94.9711 50.72 95.1607 50.6143 95.3746C50.5086 95.5886 50.4484 95.8222 50.4374 96.0607C50.4264 96.2992 50.4649 96.5375 50.5504 96.7603C50.6359 96.9831 50.7666 97.1857 50.9342 97.3552L55.1237 101.605C55.2924 101.775 55.4943 101.908 55.7166 101.996C55.939 102.084 56.1771 102.124 56.4159 102.115C56.6547 102.106 56.8891 102.048 57.1043 101.943C57.3194 101.839 57.5108 101.691 57.6663 101.509C60.8074 97.8047 68.0111 89.7604 72.2757 85.5319C74.466 83.3696 75.6939 82.1279 76.3889 81.4424C76.7336 81.0907 76.959 80.6389 77.033 80.1512C77.1071 79.6635 77.026 79.1649 76.8014 78.7261ZM98.3943 73.7678L94.7086 70.103C94.6524 70.0466 94.5853 70.0024 94.5114 69.9729C94.4375 69.9434 94.3584 69.9294 94.2789 69.9317C94.1996 69.9303 94.1207 69.9448 94.047 69.9742C93.9732 70.0036 93.906 70.0474 93.8492 70.103C93.7166 70.2368 93.5552 70.3382 93.3773 70.3993C93.1994 70.4604 93.0099 70.4796 92.8234 70.4555C92.3421 70.4027 91.8297 70.2529 91.4989 69.9317C90.7469 69.1922 91.6159 67.7371 90.9542 66.8058C90.1985 65.7867 89.3699 64.8241 88.4749 63.9257C87.7165 63.1712 84.7356 60.318 79.7147 58.2635C78.1124 57.6049 76.3974 57.2666 74.6658 57.2676C71.8353 57.2676 69.6589 58.5352 68.8651 59.2627C68.2334 59.8362 67.576 60.747 67.576 60.747C67.9556 60.6081 68.3434 60.4929 68.7372 60.4021C69.5584 60.2255 70.4011 60.1714 71.238 60.2415C72.9095 60.3805 74.9237 61.1674 76.0043 62.0189C77.7456 63.4201 78.4944 65.2946 78.6115 67.7134C78.6974 69.5124 76.9754 71.7835 75.3415 73.6353C75.1978 73.7981 75.122 74.0102 75.1301 74.2276C75.1381 74.4449 75.2292 74.6509 75.3845 74.8026L77.6661 77.091C77.8251 77.2485 78.0389 77.3377 78.2623 77.3397C78.4857 77.3417 78.7011 77.2564 78.8628 77.1017C80.3592 75.6455 82.2026 74.033 83.2478 73.3873C84.293 72.7417 85.1363 72.5595 85.5412 72.5153C86.337 72.438 87.137 72.6121 87.8293 73.0133C87.9513 73.0825 88.0627 73.1689 88.1602 73.2699C88.8541 73.977 88.8122 75.1324 88.1065 75.8288L87.8916 76.0325C87.8358 76.0876 87.7914 76.1534 87.7611 76.226C87.7308 76.2985 87.7152 76.3764 87.7152 76.455C87.7152 76.5337 87.7308 76.6115 87.7611 76.6841C87.7914 76.7566 87.8358 76.8224 87.8916 76.8775L91.5773 80.5423C91.6338 80.5982 91.701 80.6421 91.7748 80.6714C91.8487 80.7007 91.9276 80.7147 92.007 80.7127C92.167 80.7149 92.3214 80.6537 92.4366 80.5423L98.3943 74.6301C98.5041 74.5137 98.5653 74.3594 98.5653 74.199C98.5653 74.0386 98.5041 73.8843 98.3943 73.7678Z" fill="white" stroke="#182B49" stroke-width="4" stroke-linecap="round" stroke-linejoin="round"/>
</svg>
