<svg width="33" height="33" viewBox="0 0 33 33" fill="none" xmlns="http://www.w3.org/2000/svg">
<path d="M9.57 0H23.43C28.71 0 33 4.29 33 9.57V23.43C33 25.9681 31.9917 28.4023 30.197 30.197C28.4023 31.9917 25.9681 33 23.43 33H9.57C4.29 33 0 28.71 0 23.43V9.57C0 7.03188 1.00827 4.59771 2.80299 2.80299C4.59771 1.00827 7.03188 0 9.57 0ZM9.24 3.3C7.66461 3.3 6.15375 3.92582 5.03979 5.03979C3.92582 6.15375 3.3 7.66461 3.3 9.24V23.76C3.3 27.0435 5.9565 29.7 9.24 29.7H23.76C25.3354 29.7 26.8462 29.0742 27.9602 27.9602C29.0742 26.8462 29.7 25.3354 29.7 23.76V9.24C29.7 5.9565 27.0435 3.3 23.76 3.3H9.24ZM25.1625 5.775C25.7095 5.775 26.2341 5.9923 26.6209 6.37909C27.0077 6.76589 27.225 7.29049 27.225 7.8375C27.225 8.38451 27.0077 8.90911 26.6209 9.29591C26.2341 9.6827 25.7095 9.9 25.1625 9.9C24.6155 9.9 24.0909 9.6827 23.7041 9.29591C23.3173 8.90911 23.1 8.38451 23.1 7.8375C23.1 7.29049 23.3173 6.76589 23.7041 6.37909C24.0909 5.9923 24.6155 5.775 25.1625 5.775ZM16.5 8.25C18.688 8.25 20.7865 9.11919 22.3336 10.6664C23.8808 12.2135 24.75 14.312 24.75 16.5C24.75 18.688 23.8808 20.7865 22.3336 22.3336C20.7865 23.8808 18.688 24.75 16.5 24.75C14.312 24.75 12.2135 23.8808 10.6664 22.3336C9.11919 20.7865 8.25 18.688 8.25 16.5C8.25 14.312 9.11919 12.2135 10.6664 10.6664C12.2135 9.11919 14.312 8.25 16.5 8.25ZM16.5 11.55C15.1872 11.55 13.9281 12.0715 12.9998 12.9998C12.0715 13.9281 11.55 15.1872 11.55 16.5C11.55 17.8128 12.0715 19.0719 12.9998 20.0002C13.9281 20.9285 15.1872 21.45 16.5 21.45C17.8128 21.45 19.0719 20.9285 20.0002 20.0002C20.9285 19.0719 21.45 17.8128 21.45 16.5C21.45 15.1872 20.9285 13.9281 20.0002 12.9998C19.0719 12.0715 17.8128 11.55 16.5 11.55Z" fill="#FFCD00"/>
</svg>
