<svg width="33" height="26" viewBox="0 0 33 26" fill="none" xmlns="http://www.w3.org/2000/svg">
<path d="M32.1603 4.36302C32.0249 3.8159 31.7598 3.31001 31.3877 2.88871C31.0157 2.46741 30.5478 2.14327 30.0241 1.94407C24.9857 -0.0148371 16.942 3.30603e-06 16.5 3.30603e-06C16.058 3.30603e-06 8.01429 -0.0148371 2.97589 1.94407C2.45222 2.14327 1.98432 2.46741 1.61227 2.88871C1.24023 3.31001 0.975139 3.8159 0.839732 4.36302C0.456697 5.83219 0 8.53311 0 13C0 17.4669 0.456697 20.1678 0.839732 21.637C0.975139 22.1841 1.24023 22.69 1.61227 23.1113C1.98432 23.5326 2.45222 23.8567 2.97589 24.0559C7.80804 25.9406 15.3804 26 16.3969 26H16.6031C17.6196 26 25.192 25.9406 30.0241 24.0559C30.5478 23.8567 31.0157 23.5326 31.3877 23.1113C31.7598 22.69 32.0249 22.1841 32.1603 21.637C32.5433 20.1678 33 17.4669 33 13C33 8.53311 32.5433 5.83219 32.1603 4.36302ZM21.5384 13.4897L14.467 18.2386C14.3732 18.3081 14.2593 18.3446 14.1429 18.3425C14.0453 18.3388 13.9497 18.3135 13.8629 18.2683C13.7688 18.2189 13.69 18.1443 13.6354 18.0526C13.5808 17.9609 13.5525 17.8558 13.5536 17.7489V8.25114C13.5525 8.14423 13.5808 8.0391 13.6354 7.94742C13.69 7.85573 13.7688 7.78108 13.8629 7.73174C13.9569 7.68125 14.0627 7.65735 14.169 7.66258C14.2754 7.6678 14.3783 7.70196 14.467 7.76142L21.5384 12.5103C21.6206 12.5624 21.6883 12.6347 21.7352 12.7203C21.7821 12.806 21.8067 12.9022 21.8067 13C21.8067 13.0978 21.7821 13.194 21.7352 13.2797C21.6883 13.3653 21.6206 13.4376 21.5384 13.4897Z" fill="#FFCD00"/>
</svg>
