<svg width="176" height="176" viewBox="0 0 176 176" fill="none" xmlns="http://www.w3.org/2000/svg">
<rect x="4" y="4" width="168" height="168" rx="84" stroke="#182B49" stroke-width="8"/>
<path d="M81.625 87.4999C86.0479 87.4999 89.6458 83.902 89.6458 79.4791C89.6458 75.0562 86.0479 71.4583 81.625 71.4583C77.2021 71.4583 73.6041 75.0562 73.6041 79.4791C73.6041 83.902 77.2021 87.4999 81.625 87.4999ZM81.625 76.0416C83.5271 76.0416 85.0625 77.577 85.0625 79.4791C85.0625 81.3812 83.5271 82.9166 81.625 82.9166C79.7229 82.9166 78.1875 81.3812 78.1875 79.4791C78.1875 77.577 79.7229 76.0416 81.625 76.0416ZM81.625 91.5103C76.2625 91.5103 65.5833 94.1916 65.5833 99.5312V103.542H97.6666V99.5312C97.6666 94.1916 86.9875 91.5103 81.625 91.5103ZM70.9458 98.9583C72.8708 97.6291 77.5229 96.0937 81.625 96.0937C85.7271 96.0937 90.3791 97.6291 92.3041 98.9583H70.9458ZM97.7583 91.6478C100.417 93.5728 102.25 96.1395 102.25 99.5312V103.542H111.417V99.5312C111.417 94.902 103.396 92.2666 97.7583 91.6478ZM95.375 87.4999C99.7979 87.4999 103.396 83.902 103.396 79.4791C103.396 75.0562 99.7979 71.4583 95.375 71.4583C94.1375 71.4583 92.9916 71.7562 91.9375 72.2603C93.3812 74.2999 94.2291 76.7978 94.2291 79.4791C94.2291 82.1603 93.3812 84.6582 91.9375 86.6978C92.9916 87.202 94.1375 87.4999 95.375 87.4999Z" fill="#182B49"/>
</svg>
