<svg width="176" height="176" viewBox="0 0 176 176" fill="none" xmlns="http://www.w3.org/2000/svg">
<path d="M4 88C4 41.6081 41.6081 4 88 4C134.392 4 172 41.6081 172 88C172 134.392 134.392 172 88 172C41.6081 172 4 134.392 4 88Z" stroke="#182B49" stroke-width="8"/>
<path d="M89.2047 66.8921C88.9564 66.8919 88.711 66.9455 88.4855 67.0494C88.2599 67.1533 88.0596 67.3048 87.8984 67.4937L87.7265 67.6174C82.5531 66.0981 76.6853 67.2737 72.5912 71.1477C68.9578 74.5818 67.569 79.3324 68.4215 83.7771L68.37 83.8253L66.0634 86.0081C65.5935 86.4417 65.2184 86.9679 64.9619 87.5536C64.7054 88.1393 64.5729 88.7718 64.5729 89.4112C64.5729 90.0506 64.7054 90.6831 64.9619 91.2688C65.2184 91.8545 65.5935 92.3807 66.0634 92.8143C67.239 93.9315 68.8547 94.3853 70.3844 94.1756C70.6044 94.9765 71.0478 95.7362 71.7112 96.3653C72.6084 97.2143 73.76 97.6784 74.9356 97.7609C75.0215 98.8712 75.5131 99.9609 76.4137 100.81C77.3075 101.659 78.459 102.123 79.6347 102.206C79.7206 103.316 80.2122 104.406 81.1128 105.255C82.0094 106.083 83.164 106.578 84.3824 106.655C85.6007 106.732 86.8084 106.387 87.8022 105.677L88.9365 106.75C90.9303 108.641 94.1719 108.641 96.169 106.75C97.0628 105.904 97.5578 104.822 97.6472 103.715C98.8159 103.629 99.9572 103.165 100.851 102.319C101.745 101.473 102.24 100.391 102.329 99.2837C103.481 99.1874 104.605 98.7234 105.492 97.8915C106.182 97.2349 106.636 96.434 106.842 95.5918C108.355 95.774 109.933 95.3168 111.091 94.2237C111.561 93.7901 111.936 93.2639 112.193 92.6782C112.449 92.0925 112.582 91.46 112.582 90.8206C112.582 90.1811 112.449 89.5487 112.193 88.963C111.936 88.3773 111.561 87.851 111.091 87.4174L109.049 85.4856L109.438 84.0418C110.339 80.697 109.883 77.1318 108.169 74.1212C105.643 69.6456 100.751 66.9024 95.485 66.9024H91.9822C91.8242 66.8952 91.666 66.8917 91.5078 66.8921H89.2012H89.2047ZM104.233 85.6506L105.904 87.3006C106.008 87.402 106.125 87.4898 106.251 87.5618L108.592 89.7756C108.736 89.9082 108.851 90.0692 108.93 90.2485C109.008 90.4278 109.049 90.6214 109.049 90.8171C109.049 91.0129 109.008 91.2065 108.93 91.3858C108.851 91.565 108.736 91.7261 108.592 91.8587C108.293 92.1351 107.9 92.2885 107.492 92.2885C107.085 92.2885 106.692 92.1351 106.392 91.8587L102.473 88.1565C102.134 87.8427 101.688 87.6684 101.226 87.6684C100.763 87.6684 100.318 87.8427 99.9778 88.1565L99.9365 88.1909C99.7741 88.3421 99.6446 88.5251 99.5561 88.7285C99.4675 88.932 99.4218 89.1515 99.4218 89.3734C99.4218 89.5953 99.4675 89.8148 99.5561 90.0182C99.6446 90.2217 99.7741 90.4047 99.9365 90.5559L102.992 93.4434C103.137 93.5763 103.251 93.7376 103.33 93.9172C103.409 94.0968 103.449 94.2906 103.449 94.4867C103.449 94.6827 103.409 94.8766 103.33 95.0561C103.251 95.2357 103.137 95.397 102.992 95.5299C102.72 95.7824 102.368 95.9338 101.998 95.9588C101.627 95.9839 101.258 95.881 100.954 95.6674C100.608 95.4226 100.189 95.3043 99.7664 95.3325C99.3438 95.3607 98.9438 95.5336 98.6337 95.8221C98.3343 96.1009 98.1526 96.4835 98.1258 96.8918C98.0989 97.3 98.229 97.7031 98.4894 98.0187C98.7181 98.2984 98.8312 98.655 98.8057 99.0154C98.7801 99.3758 98.6178 99.7128 98.3519 99.9574C98.0753 100.213 97.7184 100.365 97.3422 100.387C96.966 100.409 96.5938 100.3 96.2894 100.078C95.9453 99.8262 95.5246 99.7017 95.099 99.7255C94.6734 99.7493 94.2692 99.92 93.9553 100.208C93.6519 100.487 93.467 100.871 93.4389 101.282C93.4107 101.692 93.5415 102.098 93.804 102.415C94.2853 103 94.2406 103.849 93.67 104.388C93.3654 104.669 92.9667 104.824 92.5528 104.824C92.1389 104.824 91.7402 104.669 91.4356 104.388L90.3287 103.343L90.6175 103.072C91.0874 102.638 91.4625 102.112 91.719 101.526C91.9755 100.941 92.108 100.308 92.108 99.6687C92.108 99.0293 91.9755 98.3968 91.719 97.8111C91.4625 97.2254 91.0874 96.6992 90.6175 96.2656C89.737 95.4407 88.5972 94.9473 87.3931 94.8699C87.298 93.7048 86.7708 92.6172 85.915 91.8209C85.0359 90.9954 83.8974 90.5009 82.694 90.4218C82.599 89.2566 82.0718 88.1691 81.2159 87.3727C80.6424 86.8386 79.9568 86.4392 79.2093 86.2037C78.4618 85.9682 77.6711 85.9026 76.895 86.0115C76.6617 85.1748 76.2026 84.4185 75.5681 83.8253C75.0615 83.3512 74.4657 82.9825 73.8154 82.7405C73.1651 82.4986 72.4733 82.3882 71.78 82.4159C71.5952 80.776 71.7981 79.1157 72.3725 77.5687C72.9469 76.0217 73.8767 74.6312 75.0869 73.5093C76.2707 72.4038 77.6682 71.552 79.1933 71.0064C80.7185 70.4608 82.3391 70.2328 83.9556 70.3365L80.1915 73.0521C79.6139 73.4622 79.1267 73.9866 78.7602 74.5928C78.3937 75.1991 78.1556 75.8741 78.0609 76.5762C77.9661 77.2782 78.0166 77.9922 78.2093 78.6739C78.402 79.3556 78.7327 79.9904 79.1809 80.539C80.0851 81.6465 81.3762 82.3691 82.793 82.5606C84.2099 82.7521 85.6465 82.3981 86.8122 81.5702L91.4425 78.2359H96.3925L104.233 85.6506ZM82.2025 75.8365L89.844 70.3296H91.5112C91.6545 70.3282 91.7979 70.3316 91.9409 70.3399H95.4815C99.579 70.3399 103.292 72.4712 105.175 75.8124C106.389 77.954 106.75 80.4187 106.213 82.7768L98.6062 75.2899C98.285 74.9749 97.853 74.7984 97.4031 74.7984H90.8822C90.522 74.7982 90.1709 74.9113 89.8784 75.1215L84.8047 78.7824C84.3527 79.0965 83.7995 79.2297 83.2542 79.1559C82.7088 79.0821 82.2109 78.8066 81.8587 78.3837C81.703 78.1988 81.5877 77.9833 81.5202 77.7511C81.4527 77.519 81.4346 77.2752 81.467 77.0356C81.4994 76.7961 81.5815 76.5659 81.7082 76.36C81.8349 76.154 82.0032 75.9769 82.2025 75.8399V75.8365ZM85.9219 98.6203C86.2224 98.3448 86.6156 98.1926 87.0232 98.1939C87.4308 98.1951 87.8231 98.3498 88.1219 98.6271C88.2658 98.7598 88.3807 98.9208 88.4593 99.1001C88.5379 99.2793 88.5785 99.4729 88.5785 99.6687C88.5785 99.8644 88.5379 100.058 88.4593 100.237C88.3807 100.417 88.2658 100.578 88.1219 100.71L85.8119 102.893C85.5122 103.169 85.1195 103.323 84.7119 103.323C84.3042 103.323 83.9115 103.169 83.6119 102.893C83.4679 102.76 83.353 102.599 83.2744 102.42C83.1958 102.241 83.1552 102.047 83.1552 101.852C83.1552 101.656 83.1958 101.462 83.2744 101.283C83.353 101.104 83.4679 100.943 83.6119 100.81L85.9219 98.6237V98.6203ZM83.4262 96.2587L81.1128 98.4484C80.8129 98.7257 80.4195 98.8798 80.0111 98.8798C79.6026 98.8798 79.2092 98.7257 78.9094 98.4484C78.7686 98.3185 78.6556 98.1614 78.5773 97.9866C78.499 97.8117 78.457 97.6229 78.4538 97.4314C78.4506 97.2398 78.4863 97.0497 78.5586 96.8723C78.631 96.695 78.7387 96.5342 78.875 96.3996L78.9094 96.3653L81.2159 94.1824L81.2503 94.1481C81.5523 93.8851 81.941 93.7431 82.3414 93.7495C82.7419 93.7558 83.1258 93.91 83.4194 94.1824C83.5627 94.3145 83.6771 94.4748 83.7557 94.6531C83.8342 94.8315 83.875 95.0242 83.8757 95.2191C83.8763 95.414 83.8368 95.6069 83.7594 95.7858C83.6821 95.9646 83.5686 96.1257 83.4262 96.2587ZM78.7169 91.8209L76.4137 94.0002L76.3759 94.0346C76.0741 94.2966 75.6862 94.438 75.2865 94.4317C74.8869 94.4254 74.5037 94.2717 74.2103 94.0002C74.0663 93.8676 73.9514 93.7066 73.8729 93.5273C73.7943 93.348 73.7537 93.1544 73.7537 92.9587C73.7537 92.7629 73.7943 92.5693 73.8729 92.3901C73.9514 92.2108 74.0663 92.0498 74.2103 91.9171L76.5134 89.7378C76.8135 89.4594 77.2076 89.3048 77.6169 89.3048C78.0261 89.3048 78.4203 89.4594 78.7203 89.7378C78.8611 89.8677 78.974 90.0248 79.0523 90.1996C79.1306 90.3744 79.1726 90.5633 79.1759 90.7548C79.1791 90.9463 79.1434 91.1365 79.071 91.3138C78.9986 91.4911 78.891 91.6519 78.7547 91.7865L78.7203 91.8209H78.7169ZM73.0725 88.2699L70.7659 90.4528C70.4663 90.7291 70.0736 90.8826 69.6659 90.8826C69.2583 90.8826 68.8656 90.7291 68.5659 90.4528C68.422 90.3201 68.3071 90.1591 68.2285 89.9798C68.1499 89.8005 68.1093 89.6069 68.1093 89.4112C68.1093 89.2154 68.1499 89.0218 68.2285 88.8426C68.3071 88.6633 68.422 88.5023 68.5659 88.3696L70.869 86.1868C71.1689 85.9095 71.5623 85.7554 71.9708 85.7554C72.3792 85.7554 72.7726 85.9095 73.0725 86.1868C73.2164 86.3194 73.3313 86.4805 73.4099 86.6597C73.4885 86.839 73.5291 87.0326 73.5291 87.2284C73.5291 87.4241 73.4885 87.6177 73.4099 87.797C73.3313 87.9763 73.2164 88.1373 73.0725 88.2699Z" fill="#182B49"/>
</svg>
