<svg width="176" height="176" viewBox="0 0 176 176" fill="none" xmlns="http://www.w3.org/2000/svg">
<path d="M4 88C4 41.6081 41.6081 4 88 4C134.392 4 172 41.6081 172 88C172 134.392 134.392 172 88 172C41.6081 172 4 134.392 4 88Z" stroke="#182B49" stroke-width="8"/>
<path d="M116.764 88.0174C116.764 95.1068 114.144 101.034 109.408 106.309C104.672 111.584 98.1535 114.923 91.1051 115.685C84.0567 116.446 76.9755 114.576 71.2219 110.434C65.4684 106.292 61.4484 100.17 59.9343 93.2444C58.4201 86.3186 59.5187 79.0775 63.0188 72.9123C66.5189 66.7472 72.1738 62.0929 78.8969 59.8436C85.62 57.5943 92.9372 57.9087 99.4426 60.7264C105.948 63.5441 110.611 67.4297 113.57 73.8723" stroke="black" stroke-width="5"/>
<path d="M97.3741 77.748C99.2247 79.5986 100.485 81.9564 100.996 84.5233C101.506 87.0901 101.244 89.7507 100.243 92.1686C99.2411 94.5865 97.545 96.6532 95.3689 98.1072C93.1929 99.5612 90.6345 100.337 88.0174 100.337C85.4002 100.337 82.8419 99.5612 80.6658 98.1072C78.4897 96.6532 76.7937 94.5865 75.7922 92.1686C74.7906 89.7507 74.5286 87.0901 75.0392 84.5233C75.5497 81.9564 76.81 79.5986 78.6606 77.748" stroke="black" stroke-width="5"/>
<path d="M88.0173 36V50.1451" stroke="black" stroke-width="5" stroke-linecap="round"/>
<line x1="88.2358" y1="71.8093" x2="88.2358" y2="80.4981" stroke="black" stroke-width="5" stroke-linecap="round"/>
<path d="M62.0085 42.3882L69.3092 55.1644" stroke="black" stroke-width="5" stroke-linecap="round"/>
<path d="M43.3008 61.5522L55.1644 68.8529" stroke="black" stroke-width="5" stroke-linecap="round"/>
<path d="M36 87.561H50.6013" stroke="black" stroke-width="5" stroke-linecap="round"/>
<path d="M56.077 105.813L43.3008 113.57" stroke="black" stroke-width="5" stroke-linecap="round"/>
<path d="M69.7655 119.501L62.0085 132.278" stroke="black" stroke-width="5" stroke-linecap="round"/>
<path d="M88.0173 124.977V139.122" stroke="black" stroke-width="5" stroke-linecap="round"/>
<path d="M106.725 119.958L114.026 131.821" stroke="black" stroke-width="5" stroke-linecap="round"/>
<path d="M119.958 106.269L133.19 113.57" stroke="black" stroke-width="5" stroke-linecap="round"/>
<path d="M124.977 87.561H139.578" stroke="black" stroke-width="5" stroke-linecap="round"/>
<path d="M119.958 69.3092L133.19 61.5522" stroke="black" stroke-width="5" stroke-linecap="round"/>
<path d="M106.725 55.1644L114.026 42.8445" stroke="black" stroke-width="5" stroke-linecap="round"/>
<path d="M111.283 74.8904L115.815 72.7769L115.991 73.1542C116.575 74.4057 116.033 75.8935 114.782 76.4771C113.53 77.0607 112.042 76.5192 111.459 75.2676L111.283 74.8904Z" fill="black"/>
<path d="M119.26 88.25H114.26V87.75C114.26 86.3693 115.379 85.25 116.76 85.25C118.141 85.25 119.26 86.3693 119.26 87.75V88.25Z" fill="black"/>
<path d="M80.2827 79.6619L76.7831 76.09L77.0806 75.7986C78.067 74.8322 79.65 74.8484 80.6163 75.8347C81.5827 76.821 81.5665 78.404 80.5802 79.3704L80.2827 79.6619Z" fill="black"/>
<path d="M99.1484 75.9893L95.6494 79.5611L95.3518 79.2695C94.3654 78.3033 94.3491 76.7204 95.3154 75.7341C96.2816 74.7478 97.8645 74.7315 98.8508 75.6977L99.1484 75.9893Z" fill="black"/>
</svg>
