<svg width="176" height="176" viewBox="0 0 176 176" fill="none" xmlns="http://www.w3.org/2000/svg">
<rect x="4" y="4" width="168" height="168" rx="84" stroke="#182B49" stroke-width="8"/>
<path d="M87.5446 62.0933L112.589 48.8178M87.5446 62.0933L62.5 48.8178M87.5446 62.0933V92.7644M112.589 48.8178L87.5446 36L62.5 48.8178M112.589 48.8178V81.32L87.5446 92.7644M62.5 48.8178V81.32M87.5446 92.7644L62.5 81.32M87.5446 92.7644V125.267M87.5446 92.7644L113.5 106.04M87.5446 92.7644L62.5 106.04M62.5 81.32L37 92.7644M87.5446 125.267L113.5 139M87.5446 125.267L62.5 139M113.5 139L139 125.267V93.68M113.5 139V106.04M139 93.68L113.5 106.04M139 93.68L130.804 89.3311L122.607 84.9822C120.634 83.8081 124.141 85.6435 127.784 87.7289M37 92.7644L62.5 106.04M37 92.7644V125.267L62.5 139M62.5 106.04V139" stroke="black" stroke-width="4"/>
</svg>
